<?xml version="1.0" encoding="utf-8"?>
<!-- Generator: Adobe Illustrator 25.4.3, SVG Export Plug-In . SVG Version: 6.00 Build 0)  -->
<svg version="1.1" xmlns="http://www.w3.org/2000/svg" xmlns:xlink="http://www.w3.org/1999/xlink" x="0px" y="0px"
	 viewBox="0 0 612 792" style="enable-background:new 0 0 612 792;" xml:space="preserve">
<style type="text/css">
	.st0{fill:#F474B7;stroke:#000000;stroke-miterlimit:10;}
</style>
<g id="Layer_3">
	<path class="st0" d="M229.2,430.45c2.38-38.04-7.89-84.62-7.89-84.62c0.73-4.45,14.64,28.86,14.64,28.86
		c3.4,16.64,3.27,36.09,3.27,36.09c12.72-27.48,33.63-58.05,33.63-58.05c-4.82,17.84-34.93,82.07-34.93,82.07
		c0.13,4.39-2.52,7.53-2.52,7.53c-1.52-3.48-2.44-8.55-2.44-8.55c-2.51,2.9-4.28,7.85-4.28,7.85
		C228.35,437.24,229.2,430.45,229.2,430.45z">
	<path class="st0" d="M195.25,435.92c1.89-25.75,11.73-44.11,11.73-44.11c23.96-21.47,46.17-41.91,46.17-41.91
		c2.63-6.43-4.55-3.12-4.55-3.12C217.53,376.14,214,380.22,214,380.22c4.93-11.91,17.96-34.54,17.96-34.54
		c-16.03,13.37-33.4,45.75-33.4,45.75c-7.9,23.59-9.04,36.81-9.04,36.81c0.33,5.65,2.99,9.26,2.99,9.26
		C195.25,435.92,195.25,435.92,195.25,435.92z">
	<path class="st0" d="M196.17,337.23c0.16-3.77-1.43-7.66-1.43-7.66c-4.77,1.53-2.84,62.74-2.84,62.74
		c-0.98,16.04,8.78,34.73,8.78,34.73c1.96,0.92-4.04-25.35-4.04-25.35c0.52-14.49,0.52-46.35,0.52-46.35
		c2.41-13.83,5.48-29.56,5.48-29.56C200.83,325.4,196.17,337.23,196.17,337.23z">
	<path class="st0" d="M304.26,457.55c-17-25.61-34.72-60.74-34.72-60.74c1.15-2.36,4.17,2.44,4.17,2.44
		c-2.75-11.65-4.45-35.07-4.45-35.07c3.74,7.56,10.26,29.13,10.26,29.13c-1.28-16.16-3-35.15-3-35.15
		c3.57,17.04,15.76,59.21,15.76,59.21c4.24,15.09,16.39,33.42,16.39,33.42C309.77,454.93,304.26,457.55,304.26,457.55z">
	<path class="st0" d="M283.24,457.15c15.94-68.67,21-74.12,21-74.12c6.46-17,16.29-41.37,16.29-41.37
		c2.11,3.57-12.14,55.01-12.14,55.01C300.6,431.11,283.24,457.15,283.24,457.15z">
	<path class="st0" d="M359.1,436.69c-33.15-25.04-60.45-88.85-60.45-88.85c-1.97-4.81,10.82,15.62,10.82,15.62
		c-3.95-11.03-5.23-22.75-5.23-22.75C318.75,375.92,359.1,436.69,359.1,436.69z">
	<path class="st0" d="M379.55,418.57c-15.88-29.55-33.95-78.39-33.95-78.39c4.29,4.2,10.77,11.37,10.77,11.37
		C368.03,375.82,379.55,418.57,379.55,418.57z">
	<path class="st0" d="M351.45,406.05c12.54-66.06,6.47-81.15,6.47-81.15c-0.85,6.25-2.24,9.1-2.24,9.1
		c-1.2-3.23-5.36-11.02-5.36-11.02c2.07,31.03-5.81,89.13-5.81,89.13C343.28,420.95,351.45,406.05,351.45,406.05z">
	<path class="st0" d="M386.59,364.61c-8.5-17.47-3.59-48.95-3.59-48.95c10.6,55.65,15.41,74.09,15.41,74.09L386.59,364.61z">
</g>
<g id="Layer_2">
	<path class="st0" d="M321.1,249.15l27.64-36.87c7.78-11.65,9.88-8.19,9.88-8.19c1.75,5.15-7.84,14.47-7.84,14.47
		c3-0.78,6.96-5.86,6.96-5.86c2.58-0.47-2.21,8.28-2.21,8.28c3.06-1.84,2.9,1.53,2.9,1.53c12.76-13.33,15.37-11.3,15.37-11.3
		c0.24,4.1-38.99,51.62-38.99,51.62c-1.45,1.63,21.14,25.92,21.14,25.92c6.19,7.75,1.45,7.95,1.45,7.95
		c-2.81-1.97-7.15-5.84-7.15-5.84c-2.78,0.52,0.65,5.66,0.65,5.66c11.54,9.9,11.32,17.03,11.32,17.03
		c-9.27,1.17-36.55-37.1-36.55-37.1c-6.35,9.99-14.63,21.31-14.63,21.31c-9.46,11.63-12.68,12.06-12.68,12.06
		c-2.31-0.86-1.27-4.87-1.27-4.87c3.27-5.02,4.56-8.06,4.56-8.06c0.31-2.79-3-1.92-3-1.92c-4.65,3.71-4.37-1.57-4.37-1.57
		c3.68-8.25,19.21-31.67,19.21-31.67c-12.04-11.01-12.13-15.36-12.13-15.36c1.3-2.21,3.78-3.07,3.78-3.07
		c-5.33-5.27-3.47-9.3-3.47-9.3C304.91,229.63,321.1,249.15,321.1,249.15z">
	<path class="st0" d="M237.22,249.79l-26.27-37.86c-7.35-11.93-9.58-8.55-9.58-8.55c-1.93,5.09,7.31,14.75,7.31,14.75
		c-2.97-0.89-6.74-6.11-6.74-6.11c-2.57-0.56,1.9,8.36,1.9,8.36c-2.99-1.95-2.95,1.43-2.95,1.43
		c-12.26-13.79-14.95-11.86-14.95-11.86c-0.39,4.09,37.07,53.01,37.07,53.01c1.39,1.68-22.07,25.13-22.07,25.13
		c-6.47,7.52-1.74,7.89-1.74,7.89c2.88-1.87,7.36-5.57,7.36-5.57c2.76,0.62-0.85,5.63-0.85,5.63
		c-11.89,9.47-11.94,16.61-11.94,16.61c9.22,1.51,37.88-35.73,37.88-35.73c5.97,10.21,13.84,21.83,13.84,21.83
		c9.02,11.97,12.23,12.51,12.23,12.51c2.34-0.77,1.45-4.82,1.45-4.82c-3.08-5.14-4.26-8.22-4.26-8.22c-0.21-2.8,3.07-1.81,3.07-1.81
		c4.51,3.88,4.42-1.41,4.42-1.41c-3.37-8.38-18.04-32.35-18.04-32.35c12.43-10.57,12.69-14.91,12.69-14.91
		c-1.21-2.26-3.66-3.21-3.66-3.21c5.52-5.07,3.81-9.16,3.81-9.16C254.12,230.87,237.22,249.79,237.22,249.79z">
	<path class="st0" d="M400.91,283.64c6.01-0.46,7.8,24.48,3.34,44.18c0,0-19.3,79.87-103.93,113.3c0,0-57.46,24.52-103.14-40.86
		c-14.55-20.83-29.97-63.98-27.5-96.63c0.21-2.74,4.35-9.86,5.65,3.5c0.94,9.72,0.74,16.56,0.74,16.56
		c7.75,39.01,14.35,58.33,26.82,72.95c50.6,59.32,94.66,40.08,94.66,40.08c71.44-32.84,89.37-64.37,99.05-97.79
		C406.22,305.63,398.58,283.82,400.91,283.64z">
	<path class="st0" d="M422.29,289.13c-3.6-0.54-9.62,27.57-36.82,45.66c0,0-65.3,35.13-146.57,19.63c0,0-46.36-10.03-86.56-36.99
		c-8.11-5.44,0.54,4.67,0.54,4.67c96.64,77.6,226.21,22.07,226.21,22.07C419.43,325.81,424.84,289.51,422.29,289.13z">
</g>
</svg>
